Coordinates
version=1
nRows=10
nColumns=40
inDegrees=yes

Units are S.I. units (second, meters, Newtons, ...)
Angles are in degrees.

endheader
time	pelvis_tilt	pelvis_list	pelvis_rotation	pelvis_tx	pelvis_ty	pelvis_tz	hip_flexion_r	hip_adduction_r	hip_rotation_r	knee_angle_r	knee_angle_r_beta	ankle_angle_r	subtalar_angle_r	mtp_angle_r	hip_flexion_l	hip_adduction_l	hip_rotation_l	knee_angle_l	knee_angle_l_beta	ankle_angle_l	subtalar_angle_l	mtp_angle_l	lumbar_extension	lumbar_bending	lumbar_rotation	arm_flex_r	arm_add_r	arm_rot_r	elbow_flex_r	pro_sup_r	wrist_flex_r	wrist_dev_r	arm_flex_l	arm_add_l	arm_rot_l	elbow_flex_l	pro_sup_l	wrist_flex_l	wrist_dev_l
     56.73900000	     -5.14226417	     -3.89395085	     -0.91236589	      0.97142748	      0.93194459	      0.40637857	     41.32887297	     -4.98631287	     -3.79049989	     60.24161766	     60.24161766	      0.92702789	    -14.92197416	      0.87980329	     14.43230372	     -5.05387356	     -7.85821596	     19.07676936	     19.07676936	     11.66511494	     -9.77575996	     -6.48776973	    -12.76420970	      3.17129308	      3.12961885	      4.34596546	    -13.42383274	     -7.65957133	     30.92906063	     46.84306463	      0.00000000	      0.00000000	     26.03082354	    -18.36725152	      7.88723793	     49.75150668	     45.95382769	      0.00000000	      0.00000000
     56.75050000	     -5.20991471	     -3.71992967	     -1.13648761	      0.97086945	      0.93184254	      0.40642733	     41.50340170	     -5.09868002	     -4.03428918	     57.23800655	     57.23800655	      0.74308546	    -14.43476062	      0.35689337	     13.63806554	     -4.85664605	     -8.16711497	     18.52496810	     18.52496810	     11.87240361	     -9.58882347	     -6.89619816	    -12.81240528	      3.13212422	      3.12836844	      3.63631612	    -13.52546723	     -9.12421347	     26.89324128	     47.06244440	      0.00000000	      0.00000000	     26.84333985	    -18.84292552	      7.06283582	     52.09230765	     46.13809100	      0.00000000	      0.00000000
     56.76200000	     -5.29233375	     -3.55671304	     -1.33894083	      0.97041322	      0.93164071	      0.40651527	     41.51354227	     -5.21072210	     -4.43926497	     53.96268113	     53.96268113	      0.82514422	    -13.68147768	      0.54026509	     12.85588264	     -4.66045317	     -8.42470691	     17.97330931	     17.97330931	     12.18951377	     -9.34119678	     -7.02168651	    -12.85307323	      3.13545190	      3.53364953	      1.76817741	    -14.00672851	     -9.31017257	     25.34780287	     47.12297786	      0.00000000	      0.00000000	     28.14686116	    -18.94090955	      6.72661663	     53.43489712	     46.20577613	      0.00000000	      0.00000000
     56.77350000	     -5.40226413	     -3.36103312	     -1.51153183	      0.97013063	      0.93130024	      0.40664394	     41.35239069	     -5.33748770	     -4.94921922	     50.39843378	     50.39843378	      0.90175093	    -12.81223336	      0.64620870	     12.11548709	     -4.43546488	     -8.70767840	     17.45462603	     17.45462603	     12.47774332	     -9.04093810	     -7.24648856	    -12.82448938	      3.10264032	      3.85711607	      0.01148994	    -14.41995862	     -9.51697462	     23.68333170	     47.19564192	      0.00000000	      0.00000000	     29.27912081	    -19.05604070	      6.41679592	     54.93198695	     46.27035829	      0.00000000	      0.00000000
     56.78500000	     -5.50402434	     -3.09650572	     -1.68982832	      0.97007162	      0.93079415	      0.40692426	     40.99514498	     -5.48972035	     -5.55029603	     46.59467754	     46.59467754	      1.00441650	    -11.80758917	      0.53501449	     11.33771430	     -4.14736588	     -9.07158636	     16.90651966	     16.90651966	     12.72736613	     -8.68486545	     -7.59657866	    -12.81824430	      2.94059842	      4.17544203	     -1.65742712	    -14.73413063	     -9.84502662	     21.83433723	     47.29264423	      0.00000000	      0.00000000	     30.24610185	    -19.22700912	      6.04135120	     56.86560783	     46.34818103	      0.00000000	      0.00000000
     56.79650000	     -5.67237872	     -2.91719760	     -1.77850396	      0.97021720	      0.93014140	      0.40720457	     40.44402625	     -5.54199217	     -6.34290444	     42.48823431	     42.48823431	      1.13588658	    -10.68882651	      0.69149100	     10.65822932	     -3.93630320	     -9.26663719	     16.40492916	     16.40492916	     13.00066841	     -8.38499851	     -7.87428529	    -12.66517263	      2.93458992	      4.16707931	     -3.30887549	    -15.03334289	    -10.11029055	     20.62067824	     47.35865279	      0.00000000	      0.00000000	     30.97780210	    -19.51819357	      5.68304136	     58.34826628	     46.41174131	      0.00000000	      0.00000000
     56.80800000	     -5.87338228	     -2.69555180	     -1.86886546	      0.97059178	      0.92923946	      0.40772360	     39.76116137	     -5.54096390	     -7.14979029	     38.25041770	     38.25041770	      1.30874810	     -9.44034872	      1.03077631	     10.00964657	     -3.69713799	     -9.48490757	     15.91968806	     15.91968806	     13.28156457	     -8.09232475	     -8.12420001	    -12.42478863	      2.83600615	      4.16565648	     -5.01476800	    -15.21132817	    -10.32248243	     19.70159695	     47.40579694	      0.00000000	      0.00000000	     31.72367659	    -19.83882787	      5.30657335	     59.75771343	     46.47304373	      0.00000000	      0.00000000
     56.81950000	     -5.79448150	     -2.30774267	     -1.95785785	      0.97151129	      0.92848417	      0.40822393	     38.65462676	     -5.74320554	     -8.15898423	     34.06409185	     34.06409185	      1.59800189	     -7.48611276	      1.12005226	      8.93222424	     -3.27456569	     -9.93002876	     15.26184781	     15.26184781	     13.51352667	     -7.46110346	     -8.68523474	    -12.57458176	      2.50611478	      4.41419120	     -6.96865378	    -15.36927570	    -10.94642642	     18.88248805	     47.49325353	      0.00000000	      0.00000000	     32.04462086	    -19.95660304	      4.61041419	     62.83531889	     46.59151024	      0.00000000	      0.00000000
     56.83100000	     -5.87375702	     -2.05426021	     -1.94389372	      0.97259890	      0.92736027	      0.40891232	     37.54685691	     -5.70472682	     -9.17580611	     29.86647929	     29.86647929	      1.90918900	     -5.80067182	      1.99435251	      8.11707828	     -3.01246767	    -10.14890369	     14.77270547	     14.77270547	     13.71612379	     -7.00289978	     -9.38499482	    -12.46276929	      2.37395513	      3.85876453	     -8.62666872	    -15.45401614	    -12.32214204	     19.10059919	     47.61482471	      0.00000000	      0.00000000	     31.55750090	    -20.64067447	      3.40420453	     66.14398172	     46.77011195	      0.00000000	      0.00000000
     56.84250000	     -5.84457288	     -1.74712435	     -1.92558108	      0.97408894	      0.92618033	      0.40978112	     36.30727748	     -5.68247170	    -10.21805827	     26.00965701	     26.00965701	      2.36037203	     -3.88638567	      3.30084521	      7.12106942	     -2.68709919	    -10.38313238	     14.22292615	     14.22292615	     14.03857334	     -6.48562018	     -9.65249065	    -12.38137766	      2.14717534	      3.88131591	    -10.61882410	    -15.49649342	    -12.97088031	     18.94436028	     47.66536977	      0.00000000	      0.00000000	     31.93340334	    -20.72507602	      2.84680925	     67.91448013	     46.86452229	      0.00000000	      0.00000000
